<svg width="729" height="34" viewBox="0 0 729 34" fill="none" xmlns="http://www.w3.org/2000/svg">
<path fill-rule="evenodd" clip-rule="evenodd" d="M598.468 1.49489C600.113 1.41917 600.637 1.40234 604.827 1.40234C609.017 1.40234 609.541 1.42057 611.185 1.49489C612.828 1.56921 613.95 1.83143 614.932 2.21144C615.959 2.59986 616.892 3.20704 617.663 3.9923C618.448 4.76213 619.054 5.69322 619.441 6.72247C619.823 7.70405 620.083 8.82584 620.159 10.4665C620.235 12.1141 620.252 12.6386 620.252 16.8271C620.252 21.017 620.233 21.5414 620.159 23.1863C620.085 24.8269 619.823 25.9487 619.441 26.9303C619.054 27.9596 618.447 28.8923 617.663 29.6632C616.892 30.4485 615.959 31.0543 614.932 31.4413C613.95 31.8227 612.828 32.0835 611.188 32.1593C609.541 32.235 609.017 32.2518 604.827 32.2518C600.637 32.2518 600.113 32.2336 598.468 32.1593C596.827 32.0849 595.705 31.8227 594.724 31.4413C593.694 31.0542 592.762 30.4475 591.991 29.6632C591.206 28.893 590.599 27.9608 590.211 26.9317C589.831 25.9501 589.571 24.8283 589.495 23.1877C589.419 21.54 589.402 21.0156 589.402 16.8271C589.402 12.6372 589.42 12.1127 589.495 10.4693C589.569 8.82584 589.831 7.70405 590.211 6.72247C590.599 5.69334 591.207 4.76117 591.992 3.99089C592.762 3.20634 593.694 2.59908 594.722 2.21144C595.704 1.83143 596.826 1.57061 598.466 1.49489H598.468ZM611.06 4.27134C609.433 4.19702 608.945 4.1816 604.827 4.1816C600.709 4.1816 600.221 4.19702 598.594 4.27134C597.089 4.34005 596.273 4.59106 595.729 4.80279C595.01 5.08324 594.495 5.41558 593.955 5.95544C593.444 6.45331 593.05 7.05941 592.803 7.72929C592.591 8.27336 592.34 9.08947 592.271 10.5941C592.197 12.2207 592.182 12.7087 592.182 16.8271C592.182 20.9455 592.197 21.4335 592.271 23.0601C592.34 24.5647 592.591 25.3808 592.803 25.9249C593.049 26.5937 593.444 27.2009 593.955 27.6987C594.453 28.2105 595.06 28.6046 595.729 28.8513C596.273 29.0631 597.089 29.3141 598.594 29.3828C600.221 29.4571 600.707 29.4725 604.827 29.4725C608.947 29.4725 609.433 29.4571 611.06 29.3828C612.565 29.3141 613.381 29.0631 613.925 28.8513C614.644 28.5709 615.159 28.2386 615.699 27.6987C616.21 27.2009 616.604 26.5937 616.851 25.9249C617.063 25.3808 617.314 24.5647 617.383 23.0601C617.457 21.4335 617.472 20.9455 617.472 16.8271C617.472 12.7087 617.457 12.2207 617.383 10.5941C617.314 9.08947 617.063 8.27336 616.851 7.72929C616.571 7.00993 616.238 6.49531 615.699 5.95544C615.201 5.44372 614.595 5.04989 613.925 4.80279C613.381 4.59106 612.565 4.34005 611.06 4.27134ZM602.857 21.5821C603.957 22.0401 605.182 22.1019 606.323 21.757C607.464 21.412 608.45 20.6817 609.112 19.6908C609.774 18.6999 610.071 17.5098 609.954 16.3238C609.836 15.1378 609.31 14.0295 608.466 13.1882C607.928 12.6504 607.277 12.2387 606.561 11.9825C605.844 11.7264 605.08 11.6322 604.323 11.7069C603.566 11.7816 602.835 12.0232 602.182 12.4144C601.53 12.8055 600.972 13.3365 600.549 13.9691C600.126 14.6016 599.849 15.3201 599.738 16.0726C599.626 16.8252 599.682 17.5931 599.903 18.3212C600.124 19.0493 600.503 19.7194 601.014 20.2832C601.525 20.8471 602.154 21.2907 602.857 21.5821ZM599.221 11.2209C599.957 10.4847 600.831 9.90067 601.793 9.50223C602.755 9.1038 603.786 8.89872 604.827 8.89872C605.868 8.89872 606.899 9.1038 607.861 9.50223C608.823 9.90067 609.697 10.4847 610.433 11.2209C611.169 11.9571 611.753 12.8311 612.152 13.793C612.55 14.7549 612.755 15.7859 612.755 16.8271C612.755 17.8682 612.55 18.8992 612.152 19.8611C611.753 20.823 611.169 21.697 610.433 22.4333C608.946 23.9201 606.93 24.7554 604.827 24.7554C602.724 24.7554 600.708 23.9201 599.221 22.4333C597.734 20.9464 596.899 18.9298 596.899 16.8271C596.899 14.7243 597.734 12.7077 599.221 11.2209ZM614.514 10.0795C614.696 9.90735 614.842 9.7004 614.943 9.47084C615.044 9.24128 615.098 8.99379 615.102 8.74301C615.105 8.49224 615.059 8.24328 614.965 8.01087C614.87 7.77847 614.73 7.56734 614.553 7.39C614.376 7.21265 614.164 7.07269 613.932 6.97841C613.7 6.88412 613.451 6.83742 613.2 6.84108C612.949 6.84473 612.702 6.89867 612.472 6.99969C612.243 7.10071 612.036 7.24677 611.863 7.4292C611.529 7.78402 611.346 8.2553 611.353 8.74301C611.36 9.23073 611.557 9.69647 611.902 10.0414C612.246 10.3863 612.712 10.5832 613.2 10.5903C613.688 10.5974 614.159 10.4142 614.514 10.0795Z" fill="#F8F8F8"/>
<path d="M666.894 5.60889H650.067C646.97 5.60889 644.458 8.12012 644.458 11.2179V22.4359C644.458 25.5336 646.97 28.0449 650.067 28.0449H666.894C669.992 28.0449 672.503 25.5336 672.503 22.4359V11.2179C672.503 8.12012 669.992 5.60889 666.894 5.60889Z" stroke="#F8F8F8" stroke-width="4.16667" stroke-linecap="round" stroke-linejoin="round"/>
<path d="M662.688 16.8269L655.676 12.6201V21.0336L662.688 16.8269Z" stroke="#F8F8F8" stroke-width="4.16667" stroke-linecap="round" stroke-linejoin="round"/>
<g clip-path="url(#clip0_72_28)">
<path d="M728.461 6.92278C727.29 7.44162 726.033 7.79218 724.71 7.95063C726.075 7.13423 727.095 5.84932 727.582 4.33564C726.3 5.09704 724.897 5.63299 723.434 5.92018C722.45 4.86971 721.147 4.17344 719.727 3.93947C718.307 3.7055 716.849 3.94692 715.58 4.62626C714.312 5.30559 713.303 6.38483 712.71 7.69641C712.117 9.00799 711.974 10.4785 712.303 11.8797C709.706 11.7493 707.165 11.0742 704.845 9.89822C702.526 8.72223 700.479 7.07165 698.839 5.05359C698.278 6.02114 697.955 7.14294 697.955 8.33765C697.955 9.41317 698.22 10.4722 698.726 11.4208C699.233 12.3694 699.966 13.1783 700.861 13.7756C699.823 13.7426 698.809 13.4623 697.902 12.9581V13.0422C697.902 14.5506 698.424 16.0127 699.379 17.1802C700.334 18.3478 701.664 19.1489 703.142 19.4477C702.18 19.7081 701.171 19.7464 700.192 19.5598C700.609 20.8578 701.422 21.9928 702.516 22.8059C703.61 23.6191 704.931 24.0697 706.294 24.0947C703.981 25.9112 701.123 26.8965 698.181 26.8922C697.66 26.8923 697.139 26.8619 696.622 26.801C699.608 28.721 703.084 29.7399 706.634 29.7359C718.651 29.7359 725.221 19.7828 725.221 11.1506C725.221 10.8701 725.214 10.5869 725.201 10.3064C726.479 9.38229 727.582 8.23795 728.458 6.92699L728.461 6.92278Z" fill="#F8F8F8"/>
</g>
<path d="M0.096 23L4.496 11.8H6.72L11.056 23H8.992L7.84 19.864H3.248L2.096 23H0.096ZM3.808 18.36H7.312L5.552 13.624L3.808 18.36ZM12.2763 23V11.528L14.0843 11.208V23H12.2763ZM16.3075 23V11.528L18.1155 11.208V23H16.3075ZM24.1565 23V11.8H29.1325C29.8685 11.8 30.5192 11.944 31.0845 12.232C31.6498 12.52 32.0872 12.92 32.3965 13.432C32.7165 13.9333 32.8765 14.52 32.8765 15.192C32.8765 15.9173 32.6738 16.552 32.2685 17.096C31.8738 17.6293 31.3352 18.0187 30.6525 18.264L33.0205 23H30.8925L28.7325 18.52H26.0765V23H24.1565ZM26.0765 16.984H28.9565C29.5538 16.984 30.0338 16.824 30.3965 16.504C30.7592 16.1733 30.9405 15.7413 30.9405 15.208C30.9405 14.664 30.7592 14.232 30.3965 13.912C30.0338 13.5813 29.5538 13.416 28.9565 13.416H26.0765V16.984ZM34.6665 23V14.984H36.4745V23H34.6665ZM35.5785 13.352C35.2692 13.352 35.0025 13.2453 34.7785 13.032C34.5652 12.808 34.4585 12.5467 34.4585 12.248C34.4585 11.9387 34.5652 11.6773 34.7785 11.464C35.0025 11.24 35.2692 11.128 35.5785 11.128C35.8878 11.128 36.1492 11.24 36.3625 11.464C36.5865 11.6773 36.6985 11.9333 36.6985 12.232C36.6985 12.5413 36.5865 12.808 36.3625 13.032C36.1492 13.2453 35.8878 13.352 35.5785 13.352ZM42.4578 26.504C41.8924 26.504 41.3324 26.4347 40.7778 26.296C40.2231 26.1573 39.7111 25.9653 39.2418 25.72L39.8658 24.392C40.3458 24.616 40.7831 24.7813 41.1778 24.888C41.5831 25.0053 41.9831 25.064 42.3778 25.064C43.0498 25.064 43.5564 24.9147 43.8978 24.616C44.2498 24.3173 44.4258 23.8747 44.4258 23.288V21.928C44.1378 22.28 43.7804 22.5573 43.3538 22.76C42.9271 22.952 42.4631 23.048 41.9618 23.048C41.2898 23.048 40.6818 22.8667 40.1378 22.504C39.5938 22.1307 39.1564 21.64 38.8258 21.032C38.5058 20.4133 38.3458 19.7253 38.3458 18.968C38.3458 18.2107 38.5111 17.528 38.8418 16.92C39.1724 16.312 39.6204 15.8267 40.1858 15.464C40.7618 15.1013 41.3964 14.92 42.0898 14.92C42.5591 14.92 42.9964 15.0107 43.4018 15.192C43.8071 15.3733 44.1538 15.64 44.4418 15.992V14.984H46.2338V23.288C46.2338 24.3227 45.9084 25.1173 45.2578 25.672C44.6071 26.2267 43.6738 26.504 42.4578 26.504ZM42.5218 21.544C42.9058 21.544 43.2631 21.4693 43.5938 21.32C43.9244 21.16 44.2018 20.9413 44.4258 20.664V17.304C44.1911 17.0267 43.9084 16.8133 43.5778 16.664C43.2471 16.5147 42.8951 16.44 42.5218 16.44C42.0631 16.44 41.6524 16.552 41.2898 16.776C40.9378 16.9893 40.6551 17.288 40.4418 17.672C40.2284 18.0453 40.1218 18.4827 40.1218 18.984C40.1218 19.464 40.2284 19.9013 40.4418 20.296C40.6551 20.68 40.9378 20.984 41.2898 21.208C41.6524 21.432 42.0631 21.544 42.5218 21.544ZM48.4638 23V11.528L50.2718 11.208V16.296C50.5811 15.816 50.9491 15.4587 51.3758 15.224C51.8024 14.9787 52.2771 14.856 52.7998 14.856C53.3544 14.856 53.8398 14.9787 54.2558 15.224C54.6718 15.4587 54.9971 15.7893 55.2318 16.216C55.4771 16.6427 55.5998 17.144 55.5998 17.72V23H53.7758V18.232C53.7758 17.6453 53.6158 17.1813 53.2958 16.84C52.9758 16.488 52.5491 16.312 52.0158 16.312C51.6531 16.312 51.3224 16.3973 51.0238 16.568C50.7358 16.728 50.4851 16.968 50.2718 17.288V23H48.4638ZM60.9979 23.16C60.1872 23.16 59.5739 22.9733 59.1579 22.6C58.7419 22.216 58.5339 21.656 58.5339 20.92V16.424H56.9339V14.984H58.5339V12.776L60.3419 12.392V14.984H62.5659V16.424H60.3419V20.52C60.3419 20.9147 60.4272 21.1973 60.5979 21.368C60.7685 21.528 61.0565 21.608 61.4619 21.608C61.6432 21.608 61.8085 21.5973 61.9579 21.576C62.1179 21.544 62.3152 21.4907 62.5499 21.416V22.936C62.3259 23.0107 62.0699 23.064 61.7819 23.096C61.5045 23.1387 61.2432 23.16 60.9979 23.16ZM67.0431 23.16C66.3605 23.16 65.7205 23.0693 65.1231 22.888C64.5365 22.696 64.0298 22.424 63.6031 22.072L64.4511 20.872C64.9845 21.2027 65.4431 21.4373 65.8271 21.576C66.2218 21.7147 66.6218 21.784 67.0271 21.784C67.5071 21.784 67.8965 21.6827 68.1951 21.48C68.4938 21.2773 68.6431 21.016 68.6431 20.696C68.6431 20.4507 68.5525 20.2587 68.3711 20.12C68.2005 19.9707 67.9178 19.8587 67.5231 19.784L66.1151 19.544C65.3365 19.3947 64.7551 19.1387 64.3711 18.776C63.9871 18.4133 63.7951 17.9333 63.7951 17.336C63.7951 16.8347 63.9231 16.4027 64.1791 16.04C64.4458 15.6667 64.8085 15.3787 65.2671 15.176C65.7365 14.9627 66.2805 14.856 66.8991 14.856C67.4538 14.856 67.9925 14.936 68.5151 15.096C69.0378 15.256 69.5498 15.496 70.0511 15.816L69.2031 17.016C68.7978 16.7493 68.3925 16.5573 67.9871 16.44C67.5925 16.312 67.1925 16.248 66.7871 16.248C66.3711 16.248 66.0351 16.3333 65.7791 16.504C65.5338 16.664 65.4111 16.888 65.4111 17.176C65.4111 17.432 65.4911 17.6293 65.6511 17.768C65.8218 17.896 66.1151 17.992 66.5311 18.056L67.9551 18.328C68.7551 18.4667 69.3471 18.7227 69.7311 19.096C70.1258 19.4587 70.3231 19.944 70.3231 20.552C70.3231 21.0427 70.1791 21.4853 69.8911 21.88C69.6031 22.2747 69.2138 22.5893 68.7231 22.824C68.2325 23.048 67.6725 23.16 67.0431 23.16ZM75.7971 23V11.8H80.7731C81.5091 11.8 82.1598 11.944 82.7251 12.232C83.2905 12.52 83.7278 12.92 84.0371 13.432C84.3571 13.9333 84.5171 14.52 84.5171 15.192C84.5171 15.9173 84.3145 16.552 83.9091 17.096C83.5145 17.6293 82.9758 18.0187 82.2931 18.264L84.6611 23H82.5331L80.3731 18.52H77.7171V23H75.7971ZM77.7171 16.984H80.5971C81.1945 16.984 81.6745 16.824 82.0371 16.504C82.3998 16.1733 82.5811 15.7413 82.5811 15.208C82.5811 14.664 82.3998 14.232 82.0371 13.912C81.6745 13.5813 81.1945 13.416 80.5971 13.416H77.7171V16.984ZM89.6449 23.16C88.8769 23.16 88.1835 22.9787 87.5649 22.616C86.9462 22.2427 86.4555 21.7467 86.0929 21.128C85.7302 20.4987 85.5489 19.7893 85.5489 19C85.5489 18.2107 85.7195 17.5067 86.0609 16.888C86.4022 16.2693 86.8662 15.7787 87.4529 15.416C88.0502 15.0427 88.7115 14.856 89.4369 14.856C90.1835 14.856 90.8395 15.0373 91.4049 15.4C91.9809 15.7627 92.4289 16.2533 92.7489 16.872C93.0795 17.4907 93.2449 18.2 93.2449 19V19.432H87.3249C87.3889 19.8693 87.5275 20.2587 87.7409 20.6C87.9649 20.9307 88.2475 21.192 88.5889 21.384C88.9409 21.576 89.3195 21.672 89.7249 21.672C90.0982 21.672 90.4502 21.608 90.7809 21.48C91.1222 21.3413 91.4049 21.1547 91.6289 20.92L92.8129 21.992C92.3222 22.3973 91.8209 22.696 91.3089 22.888C90.8075 23.0693 90.2529 23.16 89.6449 23.16ZM87.3409 18.312H91.5329C91.4689 17.928 91.3355 17.5867 91.1329 17.288C90.9409 16.9893 90.6955 16.7547 90.3969 16.584C90.1089 16.4133 89.7889 16.328 89.4369 16.328C89.0849 16.328 88.7595 16.4133 88.4609 16.584C88.1729 16.744 87.9329 16.9733 87.7409 17.272C87.5489 17.5707 87.4155 17.9173 87.3409 18.312ZM97.8869 23.16C97.2042 23.16 96.5642 23.0693 95.9669 22.888C95.3802 22.696 94.8735 22.424 94.4469 22.072L95.2949 20.872C95.8282 21.2027 96.2869 21.4373 96.6709 21.576C97.0655 21.7147 97.4655 21.784 97.8709 21.784C98.3509 21.784 98.7402 21.6827 99.0389 21.48C99.3375 21.2773 99.4869 21.016 99.4869 20.696C99.4869 20.4507 99.3962 20.2587 99.2149 20.12C99.0442 19.9707 98.7615 19.8587 98.3669 19.784L96.9589 19.544C96.1802 19.3947 95.5989 19.1387 95.2149 18.776C94.8309 18.4133 94.6389 17.9333 94.6389 17.336C94.6389 16.8347 94.7669 16.4027 95.0229 16.04C95.2895 15.6667 95.6522 15.3787 96.1109 15.176C96.5802 14.9627 97.1242 14.856 97.7429 14.856C98.2975 14.856 98.8362 14.936 99.3589 15.096C99.8815 15.256 100.394 15.496 100.895 15.816L100.047 17.016C99.6415 16.7493 99.2362 16.5573 98.8309 16.44C98.4362 16.312 98.0362 16.248 97.6309 16.248C97.2149 16.248 96.8789 16.3333 96.6229 16.504C96.3775 16.664 96.2549 16.888 96.2549 17.176C96.2549 17.432 96.3349 17.6293 96.4949 17.768C96.6655 17.896 96.9589 17.992 97.3749 18.056L98.7989 18.328C99.5989 18.4667 100.191 18.7227 100.575 19.096C100.97 19.4587 101.167 19.944 101.167 20.552C101.167 21.0427 101.023 21.4853 100.735 21.88C100.447 22.2747 100.058 22.5893 99.5669 22.824C99.0762 23.048 98.5162 23.16 97.8869 23.16ZM106.629 23.16C105.861 23.16 105.168 22.9787 104.549 22.616C103.931 22.2427 103.44 21.7467 103.077 21.128C102.715 20.4987 102.533 19.7893 102.533 19C102.533 18.2107 102.704 17.5067 103.045 16.888C103.387 16.2693 103.851 15.7787 104.437 15.416C105.035 15.0427 105.696 14.856 106.421 14.856C107.168 14.856 107.824 15.0373 108.389 15.4C108.965 15.7627 109.413 16.2533 109.733 16.872C110.064 17.4907 110.229 18.2 110.229 19V19.432H104.309C104.373 19.8693 104.512 20.2587 104.725 20.6C104.949 20.9307 105.232 21.192 105.573 21.384C105.925 21.576 106.304 21.672 106.709 21.672C107.083 21.672 107.435 21.608 107.765 21.48C108.107 21.3413 108.389 21.1547 108.613 20.92L109.797 21.992C109.307 22.3973 108.805 22.696 108.293 22.888C107.792 23.0693 107.237 23.16 106.629 23.16ZM104.325 18.312H108.517C108.453 17.928 108.32 17.5867 108.117 17.288C107.925 16.9893 107.68 16.7547 107.381 16.584C107.093 16.4133 106.773 16.328 106.421 16.328C106.069 16.328 105.744 16.4133 105.445 16.584C105.157 16.744 104.917 16.9733 104.725 17.272C104.533 17.5707 104.4 17.9173 104.325 18.312ZM112.073 23V14.984H113.881V16.712C114.116 16.104 114.42 15.64 114.793 15.32C115.166 15 115.598 14.84 116.089 14.84C116.238 14.8507 116.372 14.8667 116.489 14.888C116.606 14.8987 116.734 14.936 116.873 15V16.584C116.734 16.52 116.574 16.472 116.393 16.44C116.222 16.408 116.052 16.392 115.881 16.392C115.444 16.392 115.049 16.5093 114.697 16.744C114.356 16.9787 114.084 17.304 113.881 17.72V23H112.073ZM120.909 23L117.645 14.984H119.613L121.853 20.808L124.077 14.984H125.965L122.669 23H120.909ZM130.754 23.16C129.986 23.16 129.293 22.9787 128.674 22.616C128.056 22.2427 127.565 21.7467 127.202 21.128C126.84 20.4987 126.658 19.7893 126.658 19C126.658 18.2107 126.829 17.5067 127.17 16.888C127.512 16.2693 127.976 15.7787 128.562 15.416C129.16 15.0427 129.821 14.856 130.546 14.856C131.293 14.856 131.949 15.0373 132.514 15.4C133.09 15.7627 133.538 16.2533 133.858 16.872C134.189 17.4907 134.354 18.2 134.354 19V19.432H128.434C128.498 19.8693 128.637 20.2587 128.85 20.6C129.074 20.9307 129.357 21.192 129.698 21.384C130.05 21.576 130.429 21.672 130.834 21.672C131.208 21.672 131.56 21.608 131.89 21.48C132.232 21.3413 132.514 21.1547 132.738 20.92L133.922 21.992C133.432 22.3973 132.93 22.696 132.418 22.888C131.917 23.0693 131.362 23.16 130.754 23.16ZM128.45 18.312H132.642C132.578 17.928 132.445 17.5867 132.242 17.288C132.05 16.9893 131.805 16.7547 131.506 16.584C131.218 16.4133 130.898 16.328 130.546 16.328C130.194 16.328 129.869 16.4133 129.57 16.584C129.282 16.744 129.042 16.9733 128.85 17.272C128.658 17.5707 128.525 17.9173 128.45 18.312ZM139.477 23.08C138.805 23.08 138.197 22.8987 137.653 22.536C137.109 22.1627 136.672 21.672 136.341 21.064C136.021 20.4453 135.861 19.7573 135.861 19C135.861 18.232 136.027 17.544 136.357 16.936C136.688 16.3173 137.136 15.8267 137.701 15.464C138.277 15.1013 138.912 14.92 139.605 14.92C140.064 14.92 140.491 15.0107 140.885 15.192C141.291 15.3627 141.643 15.6187 141.941 15.96V11.528L143.749 11.208V23H141.957V21.944C141.669 22.3067 141.312 22.5893 140.885 22.792C140.459 22.984 139.989 23.08 139.477 23.08ZM140.037 21.56C140.421 21.56 140.779 21.4853 141.109 21.336C141.44 21.176 141.717 20.9573 141.941 20.68V17.304C141.707 17.0267 141.424 16.8133 141.093 16.664C140.763 16.5147 140.411 16.44 140.037 16.44C139.579 16.44 139.168 16.552 138.805 16.776C138.453 16.9893 138.171 17.288 137.957 17.672C137.744 18.056 137.637 18.4987 137.637 19C137.637 19.48 137.744 19.9173 137.957 20.312C138.171 20.696 138.453 21 138.805 21.224C139.168 21.448 139.579 21.56 140.037 21.56ZM154.901 20.376C154.367 20.376 153.882 20.248 153.445 19.992C153.018 19.7253 152.677 19.368 152.421 18.92C152.175 18.4613 152.053 17.9547 152.053 17.4C152.053 16.8347 152.181 16.328 152.437 15.88C152.693 15.4213 153.034 15.0587 153.461 14.792C153.898 14.5253 154.378 14.392 154.901 14.392C155.327 14.392 155.738 14.4827 156.133 14.664C156.527 14.8347 156.863 15.0747 157.141 15.384L156.373 16.248C156.17 16.0133 155.946 15.8373 155.701 15.72C155.455 15.6027 155.205 15.544 154.949 15.544C154.639 15.544 154.357 15.624 154.101 15.784C153.855 15.944 153.658 16.168 153.509 16.456C153.37 16.7333 153.301 17.0427 153.301 17.384C153.301 17.736 153.375 18.0507 153.525 18.328C153.674 18.6053 153.871 18.824 154.117 18.984C154.362 19.144 154.639 19.224 154.949 19.224C155.215 19.224 155.461 19.1707 155.685 19.064C155.919 18.9467 156.143 18.776 156.357 18.552L157.125 19.4C156.837 19.7093 156.501 19.9493 156.117 20.12C155.733 20.2907 155.327 20.376 154.901 20.376ZM154.757 23.176C153.989 23.176 153.274 23.032 152.613 22.744C151.951 22.4453 151.37 22.0347 150.869 21.512C150.367 20.9787 149.978 20.3653 149.701 19.672C149.423 18.968 149.285 18.2107 149.285 17.4C149.285 16.5893 149.423 15.8373 149.701 15.144C149.978 14.44 150.367 13.8267 150.869 13.304C151.37 12.7707 151.951 12.36 152.613 12.072C153.285 11.7733 153.999 11.624 154.757 11.624C155.525 11.624 156.239 11.7733 156.901 12.072C157.573 12.36 158.159 12.7653 158.661 13.288C159.162 13.8107 159.551 14.424 159.829 15.128C160.117 15.8213 160.261 16.5787 160.261 17.4C160.261 18.2107 160.117 18.968 159.829 19.672C159.551 20.376 159.162 20.9893 158.661 21.512C158.159 22.0347 157.573 22.4453 156.901 22.744C156.239 23.032 155.525 23.176 154.757 23.176ZM154.757 22.312C155.407 22.312 156.01 22.1893 156.565 21.944C157.119 21.688 157.605 21.336 158.021 20.888C158.447 20.4293 158.778 19.9067 159.013 19.32C159.258 18.7227 159.381 18.0827 159.381 17.4C159.381 16.728 159.258 16.0933 159.013 15.496C158.778 14.8987 158.447 14.376 158.021 13.928C157.605 13.48 157.119 13.128 156.565 12.872C156.01 12.616 155.407 12.488 154.757 12.488C154.127 12.488 153.535 12.616 152.981 12.872C152.426 13.1173 151.941 13.464 151.525 13.912C151.109 14.36 150.778 14.8827 150.533 15.48C150.298 16.0773 150.181 16.7173 150.181 17.4C150.181 18.0827 150.298 18.7227 150.533 19.32C150.778 19.9067 151.109 20.424 151.525 20.872C151.941 21.32 152.426 21.672 152.981 21.928C153.535 22.184 154.127 22.312 154.757 22.312ZM168.816 23V13.464H165.072V11.8H174.48V13.464H170.736V23H168.816ZM175.354 23V14.984H177.162V16.712C177.397 16.104 177.701 15.64 178.074 15.32C178.448 15 178.88 14.84 179.37 14.84C179.52 14.8507 179.653 14.8667 179.77 14.888C179.888 14.8987 180.016 14.936 180.154 15V16.584C180.016 16.52 179.856 16.472 179.674 16.44C179.504 16.408 179.333 16.392 179.162 16.392C178.725 16.392 178.33 16.5093 177.978 16.744C177.637 16.9787 177.365 17.304 177.162 17.72V23H175.354ZM183.818 23.144C183.263 23.144 182.767 23.0427 182.33 22.84C181.903 22.6267 181.567 22.3387 181.322 21.976C181.087 21.6027 180.97 21.176 180.97 20.696C180.97 20.216 181.092 19.8 181.338 19.448C181.594 19.096 181.951 18.824 182.41 18.632C182.868 18.44 183.412 18.344 184.042 18.344C184.415 18.344 184.783 18.3867 185.146 18.472C185.508 18.5467 185.86 18.6747 186.202 18.856V17.96C186.202 17.4267 186.047 17.0267 185.738 16.76C185.439 16.4933 184.98 16.36 184.362 16.36C184.031 16.36 183.674 16.4133 183.29 16.52C182.916 16.616 182.495 16.7707 182.026 16.984L181.386 15.672C182.559 15.128 183.668 14.856 184.714 14.856C185.759 14.856 186.564 15.112 187.13 15.624C187.706 16.1253 187.994 16.84 187.994 17.768V23H186.202V22.168C185.86 22.4987 185.492 22.744 185.098 22.904C184.703 23.064 184.276 23.144 183.818 23.144ZM182.666 20.664C182.666 21.0373 182.815 21.3307 183.114 21.544C183.412 21.7573 183.812 21.864 184.314 21.864C184.676 21.864 185.012 21.8107 185.322 21.704C185.642 21.5867 185.935 21.416 186.202 21.192V19.896C185.924 19.768 185.636 19.672 185.338 19.608C185.039 19.544 184.714 19.512 184.362 19.512C183.839 19.512 183.423 19.6133 183.114 19.816C182.815 20.0187 182.666 20.3013 182.666 20.664ZM192.143 23L188.879 14.984H190.847L193.087 20.808L195.311 14.984H197.199L193.903 23H192.143ZM201.989 23.16C201.221 23.16 200.527 22.9787 199.909 22.616C199.29 22.2427 198.799 21.7467 198.437 21.128C198.074 20.4987 197.893 19.7893 197.893 19C197.893 18.2107 198.063 17.5067 198.405 16.888C198.746 16.2693 199.21 15.7787 199.797 15.416C200.394 15.0427 201.055 14.856 201.781 14.856C202.527 14.856 203.183 15.0373 203.749 15.4C204.325 15.7627 204.773 16.2533 205.093 16.872C205.423 17.4907 205.589 18.2 205.589 19V19.432H199.669C199.733 19.8693 199.871 20.2587 200.085 20.6C200.309 20.9307 200.591 21.192 200.933 21.384C201.285 21.576 201.663 21.672 202.069 21.672C202.442 21.672 202.794 21.608 203.125 21.48C203.466 21.3413 203.749 21.1547 203.973 20.92L205.157 21.992C204.666 22.3973 204.165 22.696 203.653 22.888C203.151 23.0693 202.597 23.16 201.989 23.16ZM199.685 18.312H203.877C203.813 17.928 203.679 17.5867 203.477 17.288C203.285 16.9893 203.039 16.7547 202.741 16.584C202.453 16.4133 202.133 16.328 201.781 16.328C201.429 16.328 201.103 16.4133 200.805 16.584C200.517 16.744 200.277 16.9733 200.085 17.272C199.893 17.5707 199.759 17.9173 199.685 18.312ZM207.433 23V11.528L209.241 11.208V23H207.433ZM215.282 23V11.8H220.29C221.047 11.8 221.703 11.9493 222.258 12.248C222.823 12.536 223.26 12.9413 223.57 13.464C223.879 13.9867 224.034 14.5947 224.034 15.288C224.034 15.9493 223.879 16.5413 223.57 17.064C223.26 17.5867 222.823 17.9973 222.258 18.296C221.703 18.584 221.047 18.728 220.29 18.728H217.202V23H215.282ZM217.202 17.16H219.986C220.668 17.16 221.191 16.9893 221.554 16.648C221.916 16.296 222.098 15.8373 222.098 15.272C222.098 14.7173 221.916 14.2693 221.554 13.928C221.191 13.5867 220.674 13.416 220.002 13.416H217.202V17.16ZM228.862 23.144C228.105 23.144 227.417 22.9627 226.798 22.6C226.19 22.2373 225.71 21.7467 225.358 21.128C225.006 20.4987 224.83 19.7893 224.83 19C224.83 18.2107 225.006 17.5067 225.358 16.888C225.71 16.2587 226.19 15.7627 226.798 15.4C227.406 15.0373 228.094 14.856 228.862 14.856C229.63 14.856 230.313 15.0373 230.91 15.4C231.518 15.7627 231.998 16.2587 232.35 16.888C232.702 17.5067 232.878 18.2107 232.878 19C232.878 19.7893 232.702 20.4987 232.35 21.128C231.998 21.7467 231.518 22.2373 230.91 22.6C230.313 22.9627 229.63 23.144 228.862 23.144ZM228.862 21.608C229.299 21.608 229.683 21.496 230.014 21.272C230.355 21.048 230.622 20.7387 230.814 20.344C231.006 19.9387 231.102 19.4907 231.102 19C231.102 18.4987 231.006 18.056 230.814 17.672C230.622 17.2773 230.355 16.968 230.014 16.744C229.683 16.5093 229.299 16.392 228.862 16.392C228.425 16.392 228.035 16.5093 227.694 16.744C227.353 16.968 227.086 17.2773 226.894 17.672C226.702 18.056 226.606 18.4987 226.606 19C226.606 19.5013 226.702 19.9493 226.894 20.344C227.086 20.7387 227.353 21.048 227.694 21.272C228.035 21.496 228.425 21.608 228.862 21.608ZM234.745 23V14.984H236.553V16.712C236.788 16.104 237.092 15.64 237.465 15.32C237.838 15 238.27 14.84 238.761 14.84C238.91 14.8507 239.044 14.8667 239.161 14.888C239.278 14.8987 239.406 14.936 239.545 15V16.584C239.406 16.52 239.246 16.472 239.065 16.44C238.894 16.408 238.724 16.392 238.553 16.392C238.116 16.392 237.721 16.5093 237.369 16.744C237.028 16.9787 236.756 17.304 236.553 17.72V23H234.745ZM244.482 23.16C243.672 23.16 243.058 22.9733 242.642 22.6C242.226 22.216 242.018 21.656 242.018 20.92V16.424H240.418V14.984H242.018V12.776L243.826 12.392V14.984H246.05V16.424H243.826V20.52C243.826 20.9147 243.912 21.1973 244.082 21.368C244.253 21.528 244.541 21.608 244.946 21.608C245.128 21.608 245.293 21.5973 245.442 21.576C245.602 21.544 245.8 21.4907 246.034 21.416V22.936C245.81 23.0107 245.554 23.064 245.266 23.096C244.989 23.1387 244.728 23.16 244.482 23.16ZM250.083 23.144C249.529 23.144 249.033 23.0427 248.595 22.84C248.169 22.6267 247.833 22.3387 247.587 21.976C247.353 21.6027 247.235 21.176 247.235 20.696C247.235 20.216 247.358 19.8 247.603 19.448C247.859 19.096 248.217 18.824 248.675 18.632C249.134 18.44 249.678 18.344 250.307 18.344C250.681 18.344 251.049 18.3867 251.411 18.472C251.774 18.5467 252.126 18.6747 252.467 18.856V17.96C252.467 17.4267 252.313 17.0267 252.003 16.76C251.705 16.4933 251.246 16.36 250.627 16.36C250.297 16.36 249.939 16.4133 249.555 16.52C249.182 16.616 248.761 16.7707 248.291 16.984L247.651 15.672C248.825 15.128 249.934 14.856 250.979 14.856C252.025 14.856 252.83 15.112 253.395 15.624C253.971 16.1253 254.259 16.84 254.259 17.768V23H252.467V22.168C252.126 22.4987 251.758 22.744 251.363 22.904C250.969 23.064 250.542 23.144 250.083 23.144ZM248.931 20.664C248.931 21.0373 249.081 21.3307 249.379 21.544C249.678 21.7573 250.078 21.864 250.579 21.864C250.942 21.864 251.278 21.8107 251.587 21.704C251.907 21.5867 252.201 21.416 252.467 21.192V19.896C252.19 19.768 251.902 19.672 251.603 19.608C251.305 19.544 250.979 19.512 250.627 19.512C250.105 19.512 249.689 19.6133 249.379 19.816C249.081 20.0187 248.931 20.3013 248.931 20.664ZM256.448 23V11.528L258.256 11.208V23H256.448Z" fill="white"/>
<defs>
<clipPath id="clip0_72_28">
<rect width="33.6539" height="33.6539" fill="white" transform="translate(695.308)"/>
</clipPath>
</defs>
</svg>
